<svg id="katman_1" data-name="katman 1" xmlns="http://www.w3.org/2000/svg" xmlns:xlink="http://www.w3.org/1999/xlink" viewBox="0 0 1080 1080"><defs><style>.cls-1{fill:#265fa9;}.cls-2{font-size:97.65px;fill:#1954a3;font-family:Consolas;}.cls-3{fill:url(#Adsız_degrade_11);}.cls-4{fill:url(#Adsız_degrade_14);}</style><linearGradient id="Adsız_degrade_11" x1="271.93" y1="105.78" x2="271.93" y2="976.14" gradientUnits="userSpaceOnUse"><stop offset="0" stop-color="#e04c23"/><stop offset="0.05" stop-color="#d04d2d"/><stop offset="0.23" stop-color="#9a4f50"/><stop offset="0.41" stop-color="#6d516c"/><stop offset="0.58" stop-color="#4a5382"/><stop offset="0.74" stop-color="#315492"/><stop offset="0.88" stop-color="#22559c"/><stop offset="1" stop-color="#1d559f"/></linearGradient><linearGradient id="Adsız_degrade_14" x1="530.3" y1="105.78" x2="530.3" y2="976.37" gradientUnits="userSpaceOnUse"><stop offset="0" stop-color="#e14c24"/><stop offset="0.06" stop-color="#ce4d30"/><stop offset="0.24" stop-color="#994f51"/><stop offset="0.41" stop-color="#6c516d"/><stop offset="0.58" stop-color="#4a5383"/><stop offset="0.74" stop-color="#315492"/><stop offset="0.88" stop-color="#22559c"/><stop offset="1" stop-color="#1d559f"/></linearGradient></defs><polygon class="cls-1" points="923.37 548.91 923.37 548.91 923.37 548.91 923.37 548.91"/><polygon points="28.83 140.21 28.83 140.21 28.83 140.21 28.83 140.21"/><text class="cls-2" transform="translate(516.77 761.72) scale(0.91 1)">YAZILIM<tspan x="0" y="106">GELİŞTİRME </tspan><tspan x="0" y="212">TOPLULUĞU</tspan></text><polygon class="cls-3" points="312.61 394.7 459.59 394.7 516.77 298.39 255.5 298.39 141.29 105.78 141.29 105.78 27.09 105.78 141.29 298.39 141.29 298.39 198.4 394.7 198.4 394.7 199.37 394.71 312.65 394.78 312.61 394.7"/><polygon class="cls-4" points="818.06 105.78 703.86 105.78 242.53 105.78 299.68 202.09 646.75 202.09 422.58 580.17 363.11 479.87 248.85 479.79 365.47 676.47 365.47 676.47 369.44 683.16 373.12 689.37 373.12 691.18 373.12 744.97 373.12 744.97 373.12 744.98 373.12 976.37 472.03 976.37 472.03 689.38 479.68 676.47 479.68 676.47 479.68 676.47 760.96 202.09 818.06 105.78 818.07 105.78 818.06 105.78"/></svg>