<?xml version="1.0" encoding="utf-8"?>
<!-- Generator: Adobe Illustrator 25.0.1, SVG Export Plug-In . SVG Version: 6.00 Build 0)  -->
<svg version="1.1" id="katman_1" xmlns="http://www.w3.org/2000/svg" xmlns:xlink="http://www.w3.org/1999/xlink" x="0px" y="0px"
	 viewBox="0 0 550 600" style="enable-background:new 0 0 550 600;" xml:space="preserve">
<style type="text/css">
	.st0{fill:url(#SVGID_1_);}
	.st1{fill:url(#SVGID_2_);}
</style>
<g>
	<linearGradient id="SVGID_1_" gradientUnits="userSpaceOnUse" x1="171.0809" y1="-0.2736" x2="171.0809" y2="600.1157">
		<stop  offset="0" style="stop-color:#DF4C21"/>
		<stop  offset="0.0824" style="stop-color:#C44F34"/>
		<stop  offset="0.2576" style="stop-color:#915256"/>
		<stop  offset="0.4289" style="stop-color:#675471"/>
		<stop  offset="0.5925" style="stop-color:#475585"/>
		<stop  offset="0.7462" style="stop-color:#315692"/>
		<stop  offset="0.8861" style="stop-color:#235699"/>
		<stop  offset="1" style="stop-color:#1E569C"/>
	</linearGradient>
	<polygon class="st0" points="199.14,199.03 300.54,199.03 339.98,132.59 159.75,132.59 80.97,-0.27 80.97,-0.27 2.18,-0.27 
		80.97,132.59 80.97,132.59 120.36,199.03 120.36,199.03 121.03,199.03 199.18,199.09 	"/>
	<linearGradient id="SVGID_2_" gradientUnits="userSpaceOnUse" x1="349.3073" y1="-0.2727" x2="349.3073" y2="600.2736">
		<stop  offset="1.331947e-07" style="stop-color:#E04C23"/>
		<stop  offset="0.0886" style="stop-color:#C34F36"/>
		<stop  offset="0.2619" style="stop-color:#905258"/>
		<stop  offset="0.4315" style="stop-color:#675472"/>
		<stop  offset="0.5936" style="stop-color:#475585"/>
		<stop  offset="0.7462" style="stop-color:#315692"/>
		<stop  offset="0.8857" style="stop-color:#235699"/>
		<stop  offset="1" style="stop-color:#1E569C"/>
		<stop  offset="1" style="stop-color:#1E569C"/>
	</linearGradient>
	<polygon class="st1" points="547.81,-0.27 469.03,-0.27 150.8,-0.27 190.23,66.16 429.64,66.16 275,326.97 233.98,257.78 
		155.16,257.73 235.61,393.4 235.61,393.4 238.34,398.01 240.89,402.3 240.89,403.54 240.88,440.65 240.88,440.65 240.89,440.65 
		240.89,600.27 309.11,600.27 309.11,402.3 314.39,393.4 314.39,393.4 314.39,393.4 508.42,66.16 547.81,-0.27 547.82,-0.27 	"/>
</g>
<g>
</g>
<g>
</g>
<g>
</g>
<g>
</g>
<g>
</g>
<g>
</g>
</svg>
